<?xml version="1.0" standalone="no"?>
<!DOCTYPE svg PUBLIC "-//W3C//DTD SVG 20010904//EN"
 "http://www.w3.org/TR/2001/REC-SVG-20010904/DTD/svg10.dtd">
<svg version="1.0" xmlns="http://www.w3.org/2000/svg"
 width="650.000000pt" height="650.000000pt" viewBox="0 0 650.000000 650.000000"
 preserveAspectRatio="xMidYMid meet">
<metadata>
Created by potrace 1.14, written by Peter Selinger 2001-2017
</metadata>
<g transform="translate(0.000000,650.000000) scale(0.100000,-0.100000)"
fill="#000000" stroke="none">
<path d="M3042 6200 c-13 -6 -27 -8 -31 -5 -15 8 -216 -63 -276 -98 -65 -39
-215 -147 -215 -156 0 -3 -23 -31 -50 -61 -27 -30 -55 -70 -61 -87 -6 -18 -14
-33 -18 -33 -23 0 -110 -231 -109 -293 0 -21 -4 -43 -9 -50 -18 -25 -4 -237
22 -327 1 -3 5 -18 9 -35 4 -16 16 -46 27 -66 10 -20 19 -43 19 -51 0 -7 18
-40 40 -73 22 -33 40 -64 40 -69 0 -5 18 -26 40 -47 22 -21 40 -41 40 -44 0
-7 57 -58 112 -99 85 -64 114 -82 153 -98 34 -14 37 -17 20 -23 -11 -4 -41
-18 -66 -31 l-45 -23 -17 38 c-21 47 -81 108 -127 128 -44 19 -141 21 -202 4
-59 -17 -152 -105 -228 -217 -14 -20 -35 -47 -46 -59 -21 -23 -141 -257 -146
-285 -2 -8 -5 -17 -8 -20 -9 -9 -55 -180 -66 -245 -6 -36 -25 -226 -25 -240 3
-43 13 -136 18 -165 3 -19 7 -42 8 -50 17 -128 78 -331 110 -370 7 -8 16 -29
20 -47 5 -26 61 -114 85 -133 3 -3 16 -26 28 -52 12 -26 33 -55 47 -64 14 -9
44 -43 67 -75 22 -33 44 -59 48 -59 4 0 31 -23 60 -51 29 -27 83 -72 121 -98
l69 -48 -1093 -1 c-750 0 -1100 -3 -1119 -10 -54 -22 -52 -4 -54 -747 0 -561
2 -695 13 -717 25 -52 45 -55 336 -54 148 1 272 -1 275 -4 4 -3 7 -103 7 -223
l0 -219 33 -29 32 -29 2316 0 c2168 0 2318 1 2345 17 16 10 33 31 38 48 5 16
9 119 8 227 0 109 3 201 7 205 4 4 130 7 280 8 241 0 275 2 299 18 14 9 30 25
35 34 6 14 10 1351 3 1410 -2 23 -52 63 -79 64 -15 0 -505 1 -1089 1 -587 1
-1060 5 -1057 9 3 5 11 9 18 9 24 0 138 91 220 176 98 100 135 145 199 238 27
39 53 73 58 74 5 2 9 7 9 12 0 5 16 44 36 87 58 125 74 172 96 273 11 52 22
104 25 115 13 44 15 370 3 430 -7 33 -14 69 -15 80 -2 11 -9 40 -16 65 -17 62
-20 73 -23 90 -1 8 -10 29 -19 47 -9 18 -17 37 -17 43 0 7 -9 25 -21 41 -11
16 -19 35 -16 42 2 6 -1 17 -7 24 -25 28 -33 41 -61 97 -16 32 -35 60 -41 63
-7 2 -18 18 -24 34 -7 16 -16 29 -21 29 -5 0 -9 6 -9 14 0 8 -9 18 -20 21 -11
3 -20 12 -20 18 0 13 -162 177 -175 177 -4 0 -17 10 -29 23 -11 12 -48 38 -81
58 -33 20 -83 50 -111 68 -45 28 -181 83 -238 96 -29 7 -29 10 1 56 15 24 33
53 39 64 9 16 20 19 62 16 76 -4 152 33 210 104 7 8 9 15 5 15 -4 0 -2 5 5 12
7 7 12 20 12 30 0 10 3 18 8 18 10 0 5 190 -7 270 -10 66 -41 174 -54 186 -4
4 -7 14 -7 23 0 23 -96 181 -128 212 -15 14 -39 39 -53 55 -94 107 -327 233
-481 260 -63 11 -283 14 -306 4z"/>
<path d="M1851 2576 c-12 -5 -21 -12 -21 -15 0 -4 -381 -6 -847 -6 -555 1
-857 -3 -873 -9 -38 -16 -101 -83 -94 -101 4 -8 2 -15 -4 -15 -11 0 -13 -1730
-2 -1745 5 -5 9 -14 9 -20 2 -18 53 -75 67 -75 8 0 14 -5 14 -11 0 -5 5 -7 10
-4 6 3 16 3 23 -2 6 -4 124 -8 260 -9 201 0 250 -3 257 -14 5 -8 21 -15 37
-15 32 -1 76 23 67 36 -3 5 -1 9 3 9 5 0 10 11 11 25 1 14 -3 25 -8 25 -6 0
-10 6 -10 14 0 8 -7 17 -16 20 -27 10 -82 6 -86 -6 -4 -10 -64 -13 -251 -13
-136 0 -247 3 -247 6 0 4 -11 10 -24 13 -14 3 -28 16 -32 29 -5 12 -9 402 -9
867 -1 914 -3 890 52 905 15 4 397 8 848 9 728 1 824 0 855 -14 19 -9 41 -15
48 -14 6 1 16 2 20 3 26 3 48 38 45 69 -5 56 -50 82 -102 58z"/>
<path d="M4645 2582 c-26 -3 -82 -32 -61 -32 5 0 4 -6 -2 -13 -16 -19 -9 -44
18 -69 27 -25 54 -28 90 -8 20 11 177 13 847 14 453 1 823 -2 823 -6 0 -4 9
-9 19 -13 10 -3 22 -16 26 -28 12 -37 12 -1709 0 -1730 -5 -10 -26 -26 -45
-36 -30 -15 -66 -17 -266 -17 -157 1 -236 5 -245 13 -8 6 -29 13 -48 15 -26 2
-36 -2 -45 -17 -6 -11 -13 -22 -16 -25 -14 -12 -7 -49 13 -71 25 -28 64 -32
91 -10 13 11 69 15 269 16 139 1 253 3 255 5 1 1 5 3 10 5 26 7 50 21 67 39
52 53 49 7 51 944 1 490 -2 872 -7 872 -5 0 -8 3 -7 8 2 13 -16 46 -37 67 -54
54 -3 51 -909 50 -738 0 -840 1 -850 15 -7 9 -23 14 -41 12z"/>
</g>
</svg>
